<svg width="25" height="24" viewBox="0 0 25 24" fill="none" xmlns="http://www.w3.org/2000/svg">
<path fill-rule="evenodd" clip-rule="evenodd" d="M7.48111 12C7.48111 11.4804 7.56736 10.9822 7.72149 10.5149L5.02524 8.45604C4.49974 9.52291 4.20374 10.7252 4.20374 12C4.20374 13.2739 4.49949 14.4753 5.02411 15.5415L7.71886 13.4787C7.56624 13.0135 7.48111 12.5172 7.48111 12Z" fill="#FBBC05"/>
<path fill-rule="evenodd" clip-rule="evenodd" d="M12.2151 7.27279C13.344 7.27279 14.3636 7.67279 15.1648 8.32729L17.4953 6.00004C16.0751 4.76366 14.2544 4.00004 12.2151 4.00004C9.04914 4.00004 6.32814 5.81054 5.02527 8.45604L7.72139 10.5149C8.34264 8.62916 10.1135 7.27279 12.2151 7.27279Z" fill="#EA4335"/>
<path fill-rule="evenodd" clip-rule="evenodd" d="M12.2151 16.7273C10.1136 16.7273 8.34277 15.3709 7.72152 13.4852L5.02527 15.5437C6.32814 18.1895 9.04914 20 12.2151 20C14.1691 20 16.0348 19.3062 17.4349 18.0062L14.8756 16.0277C14.1535 16.4825 13.2441 16.7273 12.2151 16.7273Z" fill="#34A853"/>
<path fill-rule="evenodd" clip-rule="evenodd" d="M19.8622 12C19.8622 11.5273 19.7893 11.0182 19.6801 10.5455H12.2151V13.6364H16.5121C16.2972 14.6903 15.7125 15.5004 14.8756 16.0277L17.4348 18.0062C18.9056 16.6412 19.8622 14.6077 19.8622 12Z" fill="#4285F4"/>
</svg>
