<svg width="31" height="32" viewBox="0 0 31 32" fill="none" xmlns="http://www.w3.org/2000/svg">
<g clip-path="url(#clip0_1739_3158)">
<path d="M15.017 22.85C13.3637 24.2432 11.27 25.005 9.108 25C4.078 25 0 20.97 0 16C0 11.03 4.078 7.00002 9.108 7.00002C11.363 7.00002 13.426 7.81002 15.017 9.15002C16.67 7.75705 18.7633 6.99526 20.925 7.00002C25.955 7.00002 30.033 11.03 30.033 16C30.033 20.97 25.955 25 20.925 25C18.7633 25.0048 16.67 24.243 15.017 22.85Z" fill="#ED0006"/>
<path d="M15.017 22.85C16.0186 22.0115 16.8242 20.9636 17.377 19.7801C17.9299 18.5966 18.2166 17.3063 18.217 16C18.217 13.257 16.975 10.8 15.017 9.15002C16.67 7.75705 18.7633 6.99526 20.925 7.00002C25.955 7.00002 30.033 11.03 30.033 16C30.033 20.97 25.955 25 20.925 25C18.7633 25.0048 16.67 24.243 15.017 22.85Z" fill="#F9A000"/>
<path d="M15.017 22.85C16.975 21.2 18.217 18.743 18.217 16C18.217 13.257 16.975 10.8 15.017 9.15002C14.0154 9.98856 13.2098 11.0365 12.657 12.22C12.1041 13.4035 11.8174 14.6938 11.817 16C11.817 18.743 13.058 21.2 15.017 22.85Z" fill="#FF5E00"/>
</g>
<defs>
<clipPath id="clip0_1739_3158">
<rect width="30.033" height="32" fill="white"/>
</clipPath>
</defs>
</svg>
