<svg width="44" height="44" viewBox="0 0 44 44" fill="none" xmlns="http://www.w3.org/2000/svg">
<rect x="0.5" y="0.5" width="43" height="43" rx="5.5" stroke="#E6E7E8"/>
<path d="M26.4769 13.3485L20.204 9.55509C19.6119 9.19292 18.9388 9.0015 18.2532 9.00031C16.2094 9.00031 14.3348 10.7122 14.3348 13.105V27.3073L26.4769 19.9669C28.9083 18.4947 28.9083 14.82 26.4769 13.3485ZM17.8484 20.448V12.8679L24.1163 16.6567L17.8484 20.448Z" fill="#0E1422"/>
<path d="M29.8489 34.9844C29.8489 35.0273 17.9908 34.966 17.9908 34.966L16.9434 34.8425C15.2467 34.644 13.9443 33.1233 14.002 31.3346C14.002 31.2917 14.0057 31.2519 14.0081 31.2103C14.0547 30.4365 14.3261 29.6961 14.7858 29.0885C14.9725 28.8461 15.2009 28.6425 15.4592 28.4882L24.4782 23.0725C26.3414 21.9535 27.8931 21.562 28.6999 19.5341C28.9974 18.7757 29.126 17.9562 29.0757 17.1379L29.0446 16.5865L29.9651 21.9204C30.083 22.8264 29.9013 23.7537 29.4211 24.5169C29.1326 24.9785 28.7475 25.3653 28.2951 25.6479L17.8295 30.8943C17.8191 30.9006 17.809 30.9074 17.7993 30.9149C17.5127 31.1293 17.6896 31.6069 18.0403 31.5867L26.7515 31.6403C28.4433 31.5417 29.8526 33.2112 29.8489 34.9844Z" fill="#0E1422"/>
</svg>
