<svg width="24" height="24" viewBox="0 0 24 24" fill="none" xmlns="http://www.w3.org/2000/svg">
<g clip-path="url(#clip0_1005_421)">
<path d="M17.3553 20.3571C17.1754 20.3571 17.0028 20.2894 16.8755 20.1688C16.7482 20.0483 16.6768 19.8848 16.6768 19.7143C16.6768 19.5438 16.7482 19.3803 16.8755 19.2597C17.0028 19.1391 17.1754 19.0714 17.3553 19.0714C17.5353 19.0714 17.7079 19.1391 17.8352 19.2597C17.9624 19.3803 18.0339 19.5438 18.0339 19.7143C18.0339 19.8848 17.9624 20.0483 17.8352 20.1688C17.7079 20.2894 17.5353 20.3571 17.3553 20.3571Z" stroke="#5C5F6A" stroke-width="1.42857" stroke-linecap="round" stroke-linejoin="round"/>
<path d="M8.53392 20.3571C8.35395 20.3571 8.18135 20.2894 8.0541 20.1688C7.92684 20.0483 7.85535 19.8848 7.85535 19.7143C7.85535 19.5438 7.92684 19.3803 8.0541 19.2597C8.18135 19.1391 8.35395 19.0714 8.53392 19.0714C8.71389 19.0714 8.88648 19.1391 9.01374 19.2597C9.141 19.3803 9.21249 19.5438 9.21249 19.7143C9.21249 19.8848 9.141 20.0483 9.01374 20.1688C8.88648 20.2894 8.71389 20.3571 8.53392 20.3571Z" stroke="#5C5F6A" stroke-width="1.42857" stroke-linecap="round" stroke-linejoin="round"/>
<path d="M15.5341 11.3571H11.4626" stroke="#5C5F6A" stroke-width="1.42857" stroke-linecap="round" stroke-linejoin="round"/>
<path d="M13.4983 9.42856V13.2857" stroke="#5C5F6A" stroke-width="1.42857" stroke-linecap="round" stroke-linejoin="round"/>
<path d="M3.17859 3.64285H6.57145L6.92837 6.85714M6.92837 6.85714L7.80102 14.7064C7.83621 15.0222 7.99349 15.3144 8.24255 15.5269C8.49162 15.7394 8.81486 15.857 9.15002 15.8571H17.7272C18.0297 15.8571 18.3236 15.7613 18.5621 15.585C18.8006 15.4087 18.9701 15.1619 19.0436 14.8839L20.74 8.45528C20.7901 8.2657 20.794 8.06779 20.7513 7.87659C20.7086 7.6854 20.6204 7.50594 20.4935 7.35186C20.3666 7.19779 20.2042 7.07315 20.0188 6.98743C19.8335 6.9017 19.6299 6.85714 19.4236 6.85714H6.92837Z" stroke="#5C5F6A" stroke-width="1.42857" stroke-linecap="round" stroke-linejoin="round"/>
</g>
<defs>
<clipPath id="clip0_1005_421">
<rect width="19" height="18" fill="white" transform="translate(2.5 3)"/>
</clipPath>
</defs>
</svg>
