<svg width="24" height="24" viewBox="0 0 24 24" fill="none" xmlns="http://www.w3.org/2000/svg">
<path d="M14.1428 7V5.57142C14.1428 5.19254 13.9923 4.82918 13.7244 4.56127C13.4565 4.29337 13.0931 4.14285 12.7142 4.14285H11.2856" stroke="#5C5F6A" stroke-width="1.42857" stroke-linecap="round" stroke-linejoin="round"/>
<path d="M7.71423 17H4.1428C3.76392 17 3.40056 16.8494 3.13265 16.5816C2.86474 16.3137 2.71423 15.9503 2.71423 15.5714V5.57142C2.71423 5.19254 2.86474 4.82918 3.13265 4.56127C3.40056 4.29337 3.76392 4.14285 4.1428 4.14285H5.57138" stroke="#5C5F6A" stroke-width="1.42857" stroke-linecap="round" stroke-linejoin="round"/>
<path d="M19.8571 9.85713H12.7142C11.9252 9.85713 11.2856 10.4967 11.2856 11.2857V19.8571C11.2856 20.6461 11.9252 21.2857 12.7142 21.2857H19.8571C20.6461 21.2857 21.2856 20.6461 21.2856 19.8571V11.2857C21.2856 10.4967 20.6461 9.85713 19.8571 9.85713Z" stroke="#5C5F6A" stroke-width="1.42857" stroke-linecap="round" stroke-linejoin="round"/>
<path d="M11.6428 2.71428H5.21423L5.79995 5.02856C5.83563 5.18346 5.92296 5.32161 6.04759 5.42026C6.17222 5.51892 6.32671 5.57224 6.48566 5.57142H10.3714C10.5303 5.57224 10.6848 5.51892 10.8094 5.42026C10.9341 5.32161 11.0214 5.18346 11.0571 5.02856L11.6428 2.71428Z" stroke="#5C5F6A" stroke-width="1.42857" stroke-linecap="round" stroke-linejoin="round"/>
<path d="M14.1428 14.1429H18.4285" stroke="#5C5F6A" stroke-width="1.42857" stroke-linecap="round" stroke-linejoin="round"/>
<path d="M14.1428 17H18.4285" stroke="#5C5F6A" stroke-width="1.42857" stroke-linecap="round" stroke-linejoin="round"/>
</svg>
