<svg width="24" height="24" viewBox="0 0 24 24" fill="none" xmlns="http://www.w3.org/2000/svg">
<path d="M18.9231 11.4231H14.3077C13.9891 11.4231 13.7308 11.6814 13.7308 12V18.9231C13.7308 19.2417 13.9891 19.5 14.3077 19.5H18.9231C19.2417 19.5 19.5 19.2417 19.5 18.9231V12C19.5 11.6814 19.2417 11.4231 18.9231 11.4231Z" stroke="#5C5F6A" stroke-width="1.43" stroke-linecap="round" stroke-linejoin="round"/>
<path d="M18.9231 4.5H14.3077C13.9891 4.5 13.7308 4.7583 13.7308 5.07692V7.39615C13.7308 7.71478 13.9891 7.97308 14.3077 7.97308H18.9231C19.2417 7.97308 19.5 7.71478 19.5 7.39615V5.07692C19.5 4.7583 19.2417 4.5 18.9231 4.5Z" stroke="#5C5F6A" stroke-width="1.43" stroke-linecap="round" stroke-linejoin="round"/>
<path d="M9.69231 4.5H5.07692C4.7583 4.5 4.5 4.7583 4.5 5.07692V12C4.5 12.3186 4.7583 12.5769 5.07692 12.5769H9.69231C10.0109 12.5769 10.2692 12.3186 10.2692 12V5.07692C10.2692 4.7583 10.0109 4.5 9.69231 4.5Z" stroke="#5C5F6A" stroke-width="1.43" stroke-linecap="round" stroke-linejoin="round"/>
<path d="M9.69231 16.0269H5.07692C4.7583 16.0269 4.5 16.2852 4.5 16.6038V18.9231C4.5 19.2417 4.7583 19.5 5.07692 19.5H9.69231C10.0109 19.5 10.2692 19.2417 10.2692 18.9231V16.6038C10.2692 16.2852 10.0109 16.0269 9.69231 16.0269Z" stroke="#5C5F6A" stroke-width="1.43" stroke-linecap="round" stroke-linejoin="round"/>
</svg>
