<svg  width="24" height="24"  viewBox="0 0 24 24" fill="none" xmlns="http://www.w3.org/2000/svg">
<path d="M15.0853 15.844V6.39276C15.0853 6.02338 14.9347 5.66912 14.6667 5.40793C14.3987 5.14674 14.0352 5 13.6562 5H4.42903C4.05002 5 3.68655 5.14674 3.41855 5.40793C3.15056 5.66912 3 6.02338 3 6.39276V15.6212C3 15.9906 3.15056 16.3448 3.41855 16.606C3.68655 16.8672 4.05002 17.0139 4.42903 17.0139H5.50079M21 11.5919H15.0867M19.0765 16.7535H19.5695C19.9485 16.7535 20.312 16.6067 20.58 16.3456C20.848 16.0844 20.9986 15.7301 20.9986 15.3607V11.1825L19.0079 7.20891C18.8903 6.97493 18.7077 6.77781 18.4808 6.63993C18.254 6.50206 17.992 6.42897 17.7247 6.42897H15.3425M14.2536 17.0139H10.0565M5.57225 17.0557C5.57225 17.5714 5.78242 18.0659 6.15654 18.4305C6.53066 18.7952 7.03808 19 7.56716 19C8.09625 19 8.60366 18.7952 8.97778 18.4305C9.3519 18.0659 9.56208 17.5714 9.56208 17.0557C9.56208 16.5401 9.3519 16.0455 8.97778 15.6809C8.60366 15.3163 8.09625 15.1114 7.56716 15.1114C7.03808 15.1114 6.53066 15.3163 6.15654 15.6809C5.78242 16.0455 5.57225 16.5401 5.57225 17.0557ZM14.628 17.0557C14.628 17.5714 14.8382 18.0659 15.2123 18.4305C15.5864 18.7952 16.0938 19 16.6229 19C17.152 19 17.6594 18.7952 18.0335 18.4305C18.4076 18.0659 18.6178 17.5714 18.6178 17.0557C18.6178 16.5401 18.4076 16.0455 18.0335 15.6809C17.6594 15.3163 17.152 15.1114 16.6229 15.1114C16.0938 15.1114 15.5864 15.3163 15.2123 15.6809C14.8382 16.0455 14.628 16.5401 14.628 17.0557Z" stroke="#5C5F6A" stroke-width="1.43" stroke-linecap="round" stroke-linejoin="round"/>
</svg>
