<svg width="24" height="24" viewBox="0 0 24 24" fill="none" xmlns="http://www.w3.org/2000/svg">
<path d="M14.8571 16V18.2857C14.8571 18.5888 14.7367 18.8796 14.5224 19.0938C14.3081 19.3081 14.0174 19.4286 13.7143 19.4286H5.71427C5.41116 19.4286 5.12047 19.3081 4.90615 19.0938C4.69182 18.8796 4.57141 18.5888 4.57141 18.2857V5.7143C4.57141 5.41119 4.69182 5.1205 4.90615 4.90618C5.12047 4.69185 5.41116 4.57144 5.71427 4.57144H13.7143C14.0174 4.57144 14.3081 4.69185 14.5224 4.90618C14.7367 5.1205 14.8571 5.41119 14.8571 5.7143V8.00001M11.4286 12H19.4286M19.4286 12L17.1428 9.7143M19.4286 12L17.1428 14.2857" stroke="#5C5F6A" stroke-width="1.43" stroke-linecap="round" stroke-linejoin="round"/>
</svg>
