<svg width="24" height="24" viewBox="0 0 24 24" fill="none" xmlns="http://www.w3.org/2000/svg">
<path d="M5.23077 9.66667H18.7692M5.23077 9.66667V17.8333C5.23077 18.1427 5.36044 18.4395 5.59125 18.6583C5.82207 18.877 6.13511 19 6.46154 19H17.5385C17.8649 19 18.178 18.877 18.4087 18.6583C18.6395 18.4395 18.7692 18.1427 18.7692 17.8333V9.66667M5.23077 9.66667C4.55103 9.66667 4 9.14433 4 8.5V6.16667C4 5.52234 4.55103 5 5.23077 5H18.7692C19.449 5 20 5.52234 20 6.16667V8.5C20 9.14433 19.449 9.66667 18.7692 9.66667M10.1538 13.1667H13.8462" stroke="#5C5F6A" stroke-width="1.42857" stroke-linecap="round" stroke-linejoin="round"/>
</svg>
