<svg width="24" height="24" viewBox="0 0 24 24" fill="none" xmlns="http://www.w3.org/2000/svg">
<path d="M9.62731 5.78846L10.2037 4.33692C10.3009 4.09116 10.472 3.87977 10.6944 3.73043C10.9169 3.5811 11.1804 3.50078 11.4504 3.5H12.5496C12.8196 3.50078 13.0831 3.5811 13.3056 3.73043C13.528 3.87977 13.699 4.09116 13.7962 4.33692L14.3727 5.78846L16.3297 6.88692L17.9115 6.65154C18.1749 6.61666 18.443 6.65895 18.6818 6.77305C18.9204 6.88715 19.1189 7.06788 19.252 7.29231L19.7882 8.20769C19.9256 8.43569 19.989 8.69897 19.9698 8.96278C19.9507 9.22659 19.85 9.47855 19.681 9.68539L18.7024 10.9015V13.0985L19.7078 14.3146C19.8768 14.5215 19.9775 14.7734 19.9966 15.0372C20.0158 15.301 19.9524 15.5643 19.815 15.7923L19.2788 16.7077C19.1457 16.9321 18.9472 17.1128 18.7086 17.227C18.4698 17.341 18.2017 17.3834 17.9383 17.3485L16.3565 17.1131L14.3995 18.2115L13.8231 19.6631C13.7258 19.9088 13.5548 20.1202 13.3324 20.2696C13.1099 20.4189 12.8464 20.4992 12.5764 20.5H11.4504C11.1804 20.4992 10.9169 20.4189 10.6944 20.2696C10.472 20.1202 10.3009 19.9088 10.2037 19.6631L9.62731 18.2115L7.67019 17.1131L6.08841 17.3485C5.82502 17.3834 5.55695 17.341 5.31826 17.227C5.07959 17.1128 4.88106 16.9321 4.74791 16.7077L4.21171 15.7923C4.07431 15.5643 4.01101 15.301 4.03016 15.0372C4.0493 14.7734 4.15 14.5215 4.31895 14.3146L5.29751 13.0985V10.9015L4.29214 9.68539C4.12319 9.47855 4.02249 9.22659 4.00335 8.96278C3.9842 8.69897 4.0475 8.43569 4.1849 8.20769L4.7211 7.29231C4.85425 7.06788 5.05278 6.88715 5.29145 6.77305C5.53014 6.65895 5.79821 6.61666 6.0616 6.65154L7.64338 6.88692L9.62731 5.78846ZM9.319 12C9.319 12.5173 9.47624 13.0229 9.77082 13.453C10.0654 13.8831 10.4841 14.2183 10.974 14.4163C11.4639 14.6142 12.003 14.666 12.523 14.5651C13.0431 14.4642 13.5208 14.2151 13.8957 13.8494C14.2707 13.4836 14.526 13.0176 14.6295 12.5102C14.7329 12.0029 14.6798 11.477 14.4769 10.9991C14.274 10.5212 13.9304 10.1128 13.4895 9.82539C13.0486 9.53801 12.5302 9.38462 12 9.38462C11.2889 9.38462 10.607 9.66016 10.1042 10.1506C9.60147 10.6411 9.319 11.3064 9.319 12Z" stroke="#5C5F6A" stroke-width="1.42857" stroke-linecap="round" stroke-linejoin="round"/>
</svg>
