<svg width="24" height="24" viewBox="0 0 24 24" fill="none" xmlns="http://www.w3.org/2000/svg">
<path d="M7.80764 19.7857H5.41204C5.09435 19.7857 4.78969 19.6595 4.56506 19.4349C4.34043 19.2103 4.21423 18.9056 4.21423 18.5879V9.00551M4.21423 9.00551H19.7857M4.21423 9.00551L6.86138 4.8132C6.96381 4.63561 7.11011 4.48728 7.28628 4.38242C7.46246 4.27756 7.66259 4.21967 7.86753 4.21429H16.1324C16.3373 4.21967 16.5375 4.27756 16.7137 4.38242C16.8897 4.48728 17.0361 4.63561 17.1385 4.8132L19.7857 9.00551M19.7857 9.00551V18.5879C19.7857 18.9056 19.6594 19.2103 19.4348 19.4349C19.2102 19.6595 18.9055 19.7857 18.5879 19.7857H16.1923M9.0054 15.5934L11.9999 12.5989M11.9999 12.5989L14.9944 15.5934M11.9999 12.5989L12 19.7857M12 4.21429V9.0055" stroke="#5C5F6A" stroke-width="1.42857" stroke-linecap="round" stroke-linejoin="round"/>
</svg>
