<svg width="24" height="24" viewBox="0 0 24 24" fill="none" xmlns="http://www.w3.org/2000/svg">
<path d="M14.7692 10.6666C16.681 10.6666 18.2308 9.17424 18.2308 7.33331C18.2308 5.49237 16.681 4 14.7692 4M18.2308 20H21V19.2771C20.9889 18.2608 20.7106 17.2638 20.191 16.3792C19.6713 15.4946 18.9274 14.7513 18.0285 14.2186C17.4475 13.8743 16.8139 13.6253 16.1538 13.4793M9.23077 10.6666C11.1425 10.6666 12.6923 9.17424 12.6923 7.33331C12.6923 5.49237 11.1425 4 9.23077 4C7.31902 4 5.76923 5.49237 5.76923 7.33331C5.76923 9.17424 7.31902 10.6666 9.23077 10.6666ZM3 19.9999H15.4615V19.2771C15.4505 18.2608 15.1722 17.2638 14.6526 16.3792C14.1329 15.4946 13.3889 14.7512 12.4901 14.2186C11.5912 13.6859 10.5668 13.3814 9.51257 13.3333C9.41858 13.329 9.32462 13.3268 9.23077 13.3266C9.13692 13.3268 9.04296 13.329 8.94897 13.3333C7.89474 13.3814 6.87035 13.6859 5.97148 14.2186C5.07263 14.7512 4.32864 15.4946 3.80899 16.3792C3.28935 17.2638 3.01102 18.2608 3 19.2771V19.9999Z" stroke="#5C5F6A" stroke-width="1.42857" stroke-linecap="round" stroke-linejoin="round"/>
</svg>
