<svg width="24" height="24" viewBox="0 0 24 24" fill="none" xmlns="http://www.w3.org/2000/svg">
<path d="M12.0391 10.5C14.1988 10.5 15.9497 8.82107 15.9497 6.75C15.9497 4.67894 14.1988 3 12.0391 3C9.87932 3 8.12848 4.67894 8.12848 6.75C8.12848 8.82107 9.87932 10.5 12.0391 10.5Z" stroke="#5C5F6A" stroke-width="1.42857" stroke-linecap="round" stroke-linejoin="round"/>
<path d="M5 21V20.1869C5.01245 19.0436 5.32689 17.9219 5.91394 16.9267C6.501 15.9315 7.34151 15.0953 8.35697 14.496C9.37244 13.8968 10.5297 13.5541 11.7207 13.5C11.8269 13.4952 11.9331 13.4927 12.0391 13.4925C12.1451 13.4927 12.2513 13.4952 12.3574 13.5C13.5484 13.5541 14.7057 13.8968 15.7212 14.496C16.3051 14.8406 16.8312 15.2636 17.2845 15.75" stroke="#5C5F6A" stroke-width="1.42857" stroke-linecap="round" stroke-linejoin="round"/>
</svg>
