<svg width="24" height="24" viewBox="0 0 24 24" fill="none" xmlns="http://www.w3.org/2000/svg">
<path fill-rule="evenodd" clip-rule="evenodd" d="M9.11604 7.08299C9.88092 6.31812 10.9183 5.88842 12 5.88842C13.0817 5.88842 14.1191 6.31812 14.884 7.08299C15.6488 7.84787 16.0785 8.88525 16.0785 9.96695C16.0785 11.0486 15.6488 12.086 14.884 12.8509C14.1191 13.6158 13.0817 14.0455 12 14.0455C10.9183 14.0455 9.88092 13.6158 9.11604 12.8509C8.35117 12.086 7.92147 11.0486 7.92147 9.96695C7.92147 8.88525 8.35117 7.84787 9.11604 7.08299ZM12 7.26864C11.2844 7.26864 10.598 7.55292 10.092 8.05895C9.58597 8.56498 9.30169 9.25131 9.30169 9.96695C9.30169 10.6826 9.58597 11.3689 10.092 11.8749C10.598 12.381 11.2844 12.6653 12 12.6653C12.7156 12.6653 13.402 12.381 13.908 11.8749C14.414 11.3689 14.6983 10.6826 14.6983 9.96695C14.6983 9.25131 14.414 8.56498 13.908 8.05895C13.402 7.55292 12.7156 7.26864 12 7.26864Z" fill="#5C5F6A"/>
<path fill-rule="evenodd" clip-rule="evenodd" d="M12 16.0804C10.9559 16.0804 9.9293 16.349 9.01897 16.8603C8.10864 17.3717 7.34516 18.1087 6.80193 19.0003C6.60364 19.3258 6.17902 19.4289 5.85353 19.2307C5.52804 19.0324 5.42493 18.6077 5.62323 18.2823C6.28964 17.1884 7.22624 16.2843 8.343 15.657C9.45975 15.0297 10.7191 14.7002 12 14.7002C13.2809 14.7002 14.5402 15.0297 15.657 15.657C16.7738 16.2843 17.7104 17.1884 18.3768 18.2823C18.5751 18.6077 18.472 19.0324 18.1465 19.2307C17.821 19.4289 17.3964 19.3258 17.1981 19.0003C16.6548 18.1087 15.8914 17.3717 14.981 16.8603C14.0707 16.349 13.0441 16.0804 12 16.0804Z" fill="#5C5F6A"/>
<path fill-rule="evenodd" clip-rule="evenodd" d="M5.28249 5.28249C7.06408 3.50089 9.48044 2.5 12 2.5C14.5196 2.5 16.9359 3.50089 18.7175 5.28249C20.4991 7.06408 21.5 9.48044 21.5 12C21.5 14.5196 20.4991 16.9359 18.7175 18.7175C16.9359 20.4991 14.5196 21.5 12 21.5C9.48044 21.5 7.06408 20.4991 5.28249 18.7175C3.50089 16.9359 2.5 14.5196 2.5 12C2.5 9.48044 3.50089 7.06408 5.28249 5.28249ZM12 3.88022C9.8465 3.88022 7.7812 4.73569 6.25845 6.25845C4.73569 7.7812 3.88022 9.8465 3.88022 12C3.88022 14.1535 4.73569 16.2188 6.25845 17.7416C7.7812 19.2643 9.8465 20.1198 12 20.1198C14.1535 20.1198 16.2188 19.2643 17.7416 17.7416C19.2643 16.2188 20.1198 14.1535 20.1198 12C20.1198 9.8465 19.2643 7.7812 17.7416 6.25845C16.2188 4.73569 14.1535 3.88022 12 3.88022Z" fill="#5C5F6A"/>
</svg>
