<svg width="43" height="32" viewBox="0 0 43 32" fill="none" xmlns="http://www.w3.org/2000/svg">
<g clip-path="url(#clip0_1739_3159)">
<path d="M27.515 9.00008C28.5598 8.99548 29.5959 9.19135 30.567 9.57708L30.104 12.5031L29.796 12.3601C29.003 11.9927 28.1355 11.8147 27.262 11.8401C25.919 11.8401 25.316 12.4311 25.302 13.0081C25.302 13.6431 26.032 14.0611 27.222 14.6811C29.182 15.6471 30.09 16.8291 30.077 18.3711C30.049 21.1841 27.725 23.0001 24.155 23.0001C22.629 22.9851 21.159 22.6531 20.361 22.2791L20.837 19.2361L21.285 19.4531C22.391 19.9581 23.119 20.1731 24.477 20.1731C25.457 20.1731 26.507 19.7551 26.52 18.8481C26.52 18.2561 26.073 17.8241 24.757 17.1601C23.469 16.5111 21.747 15.4301 21.775 13.4841C21.789 10.8451 24.155 9.00008 27.515 9.00008ZM14.831 22.7981H18.233L20.361 9.24608H16.959L14.831 22.7981Z" fill="#00579F"/>
<path fill-rule="evenodd" clip-rule="evenodd" d="M39.288 9.24608H36.657C35.845 9.24608 35.229 9.49108 34.878 10.3701L29.825 22.7981H33.395L34.109 20.7651H38.477C38.575 21.2411 38.883 22.7981 38.883 22.7981H42.033L39.288 9.24608ZM35.088 17.9961L36.448 14.2061C36.441 14.2161 36.486 14.0901 36.552 13.9011C36.65 13.6211 36.795 13.2081 36.895 12.9081L37.132 14.0751C37.132 14.0751 37.777 17.3191 37.917 17.9971H35.089L35.088 17.9961Z" fill="#00579F"/>
<path d="M8.65696 18.4871L11.989 9.24608H15.587L10.239 22.7841H6.64096L3.58896 10.9321C5.74496 12.1001 7.67696 14.4501 8.29296 16.6121L8.65696 18.4871Z" fill="#00579F"/>
<path d="M5.56296 9.24608H0.0889592L0.032959 9.51908C4.30296 10.6441 7.13096 13.3551 8.29296 16.6131L7.10296 10.3851C6.90696 9.51908 6.30496 9.27508 5.56296 9.24508V9.24608Z" fill="#FAA61A"/>
</g>
<defs>
<clipPath id="clip0_1739_3159">
<rect width="42" height="32.0001" fill="white" transform="translate(0.032959)"/>
</clipPath>
</defs>
</svg>
