<?xml version="1.0" standalone="no"?>
<!DOCTYPE svg PUBLIC "-//W3C//DTD SVG 20010904//EN"
 "http://www.w3.org/TR/2001/REC-SVG-20010904/DTD/svg10.dtd">
<svg version="1.0" xmlns="http://www.w3.org/2000/svg"
 width="408.000000pt" height="612.000000pt" viewBox="0 0 408.000000 612.000000"
 preserveAspectRatio="xMidYMid meet">

<g transform="translate(0.000000,612.000000) scale(0.100000,-0.100000)"
fill="#000000" stroke="none">
<path d="M2342 5403 c-1 -398 1 -723 6 -723 6 0 6 528 -1 1190 -1 140 -3 -70
-5 -467z"/>
<path d="M2289 4372 l-66 -3 -23 -57 c-29 -71 -142 -187 -215 -221 -164 -75
-459 -228 -509 -264 -54 -38 -79 -70 -250 -327 -105 -157 -221 -327 -259 -379
-37 -51 -67 -97 -67 -101 0 -12 456 -340 473 -340 19 0 41 23 126 128 41 51
75 91 77 90 1 -2 -2 -50 -6 -108 -5 -58 -9 -433 -10 -833 0 -574 3 -728 13
-731 107 -30 943 -47 1237 -25 91 6 201 15 245 18 l80 6 -3 813 c-2 557 0 812
7 812 6 0 22 -19 37 -41 38 -61 104 -129 124 -129 10 0 46 20 81 43 76 52 369
247 395 263 16 10 17 15 8 30 -35 57 -335 528 -405 637 -77 118 -89 132 -158
179 -76 51 -449 238 -475 238 -15 0 -26 -21 -26 -49 0 -13 -23 -27 -82 -51
-79 -32 -91 -34 -241 -38 -102 -3 -180 0 -220 8 -63 12 -167 55 -167 69 0 13
185 130 247 157 32 13 68 30 81 36 18 9 30 9 55 -1 18 -7 42 -14 54 -16 12 -2
27 -6 32 -10 6 -3 11 -4 11 -1 0 18 -148 75 -200 77 -28 1 -24 3 20 10 30 5
72 6 93 3 32 -4 37 -2 37 15 0 23 22 41 28 23 2 -7 8 -12 13 -12 10 0 1 21
-24 54 -16 22 -76 32 -168 28z m151 -57 c0 -11 -9 -14 -32 -11 -52 6 -54 7
-33 16 32 14 65 12 65 -5z"/>
<path d="M2697 4079 c7 -7 15 -10 18 -7 3 3 -2 9 -12 12 -14 6 -15 5 -6 -5z"/>
</g>
</svg>
