<svg width="24" height="24" viewBox="0 0 24 24" fill="none" xmlns="http://www.w3.org/2000/svg">
<path d="M12.2678 2C6.87057 2 4 5.51248 4 9.34245C4 11.1191 4.97743 13.3341 6.54229 14.0366C6.77925 14.1449 6.90842 14.0991 6.9619 13.8749C7.00797 13.7058 7.21366 12.8866 7.31321 12.4999C7.33095 12.4397 7.33261 12.3759 7.31801 12.3148C7.30341 12.2538 7.27308 12.1977 7.23011 12.1524C6.71014 11.5424 6.29794 10.4316 6.29794 9.38912C6.29794 6.71747 8.38937 4.12415 11.9478 4.12415C15.0248 4.12415 17.178 6.15414 17.178 9.05745C17.178 12.3391 15.4675 14.6091 13.2461 14.6091C12.0169 14.6091 11.1011 13.6291 11.3916 12.4174C11.7421 10.9733 12.4299 9.41995 12.4299 8.37912C12.4299 7.4458 11.9107 6.67247 10.8502 6.67247C9.59798 6.67247 8.58271 7.93079 8.58271 9.62161C8.58271 10.6958 8.95706 11.4208 8.95706 11.4208L7.48846 17.4491C7.0993 19.0557 7.54111 21.6574 7.57896 21.8807C7.60282 22.0049 7.73939 22.0432 7.81591 21.9424C7.93768 21.7799 9.43426 19.6107 9.85386 18.0432C10.0069 17.4716 10.633 15.1557 10.633 15.1557C11.0452 15.9116 12.2357 16.5457 13.5036 16.5457C17.2751 16.5457 20 13.1791 20 9.00162C19.986 4.99665 16.6111 2 12.2678 2Z" fill="#5C5F6A"/>
</svg>
